/* XPM */
static char *_578492670086[] = {
/* columns rows colors chars-per-pixel */
"64 64 256 2 ",
"   c black",
".  c #0000A8",
"X  c #00A800",
"o  c #00A8A8",
"O  c #A80000",
"+  c #A800A8",
"@  c #A85400",
"#  c #4C4436",
"$  c gray33",
"%  c #5454FC",
"&  c #524A42",
"*  c #5E5246",
"=  c #736352",
"-  c #685D4C",
";  c #FCFC54",
":  c gray99",
">  c #ECECEC",
",  c gainsboro",
"<  c #D0D0D0",
"1  c #C0C0C0",
"2  c #B4B4B4",
"3  c gray66",
"4  c #989898",
"5  c gray55",
"6  c #7C7C7C",
"7  c gray44",
"8  c #646464",
"9  c gray33",
"0  c #484848",
"q  c gray22",
"w  c #2C2C2C",
"e  c #202020",
"r  c #FC0000",
"t  c #EC0000",
"y  c #E00000",
"u  c #D40000",
"i  c #C80000",
"p  c #BC0000",
"a  c #B00000",
"s  c #A40000",
"d  c #980000",
"f  c #880000",
"g  c #7C0000",
"h  c #700000",
"j  c #640000",
"k  c #580000",
"l  c #4C0000",
"z  c #400000",
"x  c #FCD8D8",
"c  c #FCB8B8",
"v  c #FC9C9C",
"b  c #FC7C7C",
"n  c #FC5C5C",
"m  c #FC4040",
"M  c #FC2020",
"N  c #FC0000",
"B  c #FCA85C",
"V  c #FC9840",
"C  c #FC8820",
"Z  c #FC7800",
"A  c #E46C00",
"S  c #CC6000",
"D  c #B45400",
"F  c #9C4C00",
"G  c #FCFCD8",
"H  c #FCFCB8",
"J  c #FCFC9C",
"K  c #FCFC7C",
"L  c #FCF85C",
"P  c #FCF440",
"I  c #FCF420",
"U  c #FCF400",
"Y  c #E4D800",
"T  c #CCC400",
"R  c #B4AC00",
"E  c #9C9C00",
"W  c #848400",
"Q  c #706C00",
"!  c #585400",
"~  c #404000",
"^  c #849C7B",
"/  c #738C6B",
"(  c #6B7B63",
")  c #637352",
"_  c #5A6B52",
"`  c #525A4A",
"'  c #4A5242",
"]  c #425239",
"[  c #394A39",
"{  c #313931",
"}  c #313929",
"|  c #293129",
" . c #293121",
".. c #212921",
"X. c #182118",
"o. c #181818",
"O. c #00FC00",
"+. c #00EC00",
"@. c #00E000",
"#. c #00D400",
"$. c #04C800",
"%. c #04BC00",
"&. c #04B000",
"*. c #04A400",
"=. c #049800",
"-. c #048800",
";. c #047C00",
":. c #047000",
">. c #046400",
",. c #045800",
"<. c #044C00",
"1. c #044000",
"2. c #C8BFB2",
"3. c #A89A85",
"4. c #9A8C77",
"5. c #7CFCF8",
"6. c #5CFCFC",
"7. c #40FCFC",
"8. c #20FCFC",
"9. c #00FCFC",
"0. c #00E4E4",
"q. c #00CCCC",
"w. c #00B4B4",
"e. c #009C9C",
"r. c #008484",
"t. c #007070",
"y. c #005858",
"u. c #004040",
"i. c #94846B",
"p. c #8C7B67",
"a. c #847B63",
"s. c #81735D",
"d. c #7B6B5A",
"f. c #007CCC",
"g. c #006CB4",
"h. c #005C9C",
"j. c #736B5A",
"k. c #736B52",
"l. c #9C9CFC",
"z. c #7C80FC",
"x. c #5C60FC",
"c. c #4040FC",
"v. c #2024FC",
"b. c #0004FC",
"n. c #0000FC",
"m. c #0000EC",
"M. c #0000E0",
"N. c #0000D4",
"B. c #0000C8",
"V. c #0000BC",
"C. c #0000B0",
"Z. c #0000A4",
"A. c #000098",
"S. c #000088",
"D. c #00007C",
"F. c #000070",
"G. c #000064",
"H. c #000058",
"J. c #00004C",
"K. c #000040",
"L. c #282828",
"P. c #FCE034",
"I. c #FCD424",
"U. c #FCCC18",
"Y. c #FCC008",
"T. c #FCB400",
"R. c #B420FC",
"E. c #A800FC",
"W. c #9800E4",
"Q. c #8000CC",
"!. c #7400B4",
"~. c #60009C",
"^. c #500084",
"/. c #440070",
"(. c #340058",
"). c #280040",
"_. c #FCD8FC",
"`. c #FCB8FC",
"'. c #FC9CFC",
"]. c #FC7CFC",
"[. c #FC5CFC",
"{. c #FC40FC",
"}. c #FC20FC",
"|. c #FC00FC",
" X c #E000E4",
".X c #C800CC",
"XX c #B400B4",
"oX c #9C009C",
"OX c #840084",
"+X c #6C0070",
"@X c #580058",
"#X c #400040",
"$X c #FCE8DC",
"%X c #FCE0D0",
"&X c #FCD8C4",
"*X c #FCD4BC",
"=X c #FCCCB0",
"-X c #FCC4A4",
";X c #FCBC9C",
":X c #FCB890",
">X c #FCB080",
",X c #FCA470",
"<X c #FC9C60",
"1X c #F0945C",
"2X c #E88C58",
"3X c #DC8854",
"4X c #D08050",
"5X c #C87C4C",
"6X c #BC7848",
"7X c #B47044",
"8X c #A86840",
"9X c #A0643C",
"0X c #9C6038",
"qX c #905C34",
"wX c #885830",
"eX c #80502C",
"rX c #744C28",
"tX c #6C4824",
"yX c #5C4020",
"uX c #543C1C",
"iX c #483818",
"pX c #403018",
"aX c #382C14",
"sX c #28200C",
"dX c #600064",
"fX c #006464",
"gX c #006060",
"hX c #00001C",
"jX c #00002C",
"kX c #302410",
"lX c #480048",
"zX c #500050",
"xX c #000034",
"cX c gray11",
"vX c #4C4C4C",
"bX c gray36",
"nX c gray25",
"mX c gray19",
"MX c #343434",
"NX c #2E2B22",
"BX c #B8E8E8",
"VX c #9CDCDC",
"CX c #74C8C8",
"ZX c #48C0C0",
"AX c #20B4B4",
"SX c #20B0B0",
"DX c #00A4A4",
"FX c #009898",
"GX c #008C8C",
"HX c #008484",
"JX c #007C7C",
"KX c #007878",
"LX c #007474",
"PX c #007070",
"IX c #006C6C",
"UX c #980088",
/* pixels */
"q 2X2X2X2X2X2X2X2X2X2X2X2X2X2X2X2X2X2X2X2X6XcXq 2X2X2X2X2X2X2X2X2X2X2X2X2X2X2X2X2X2X2X2X2X2X2X2X2X2X2X6XcXq 2X2X2X2X2X2X2X2X6 cX",
"q 6X,X1X5X5X4X1X,X1X5X5X8X1X,X,X,X,X6X1 3 9XcXq 6X4X2X8X4 3 4 3 1 3 3X3 1 2X,X,X1X,X3X4 1X,X3 1X3X4X6X8XcXq 3 ,X5X1X2X6X3 3 6 cX",
"q 1X>X,X4X3X5X2X,X1 3 6X5X2X2X2X3X,X3 1X4XtXcXq 9XqX6X7 5 8X5 3 3 3X5X6 4X3 2X3X4X6X4X2X3 5X5X4X4 8X9X8 cXq 3 :X8X6X8X8X3 8XrXcX",
"cX4X,X3X6X8X8X6X3 1X5X8X6X5X6X6X4X2X3X6X9X$ cXq 6X6XqXwXbXrX7 qX9X8X9XwXqX8XqXqXrX9X8X9XqXqX6 9XqXrX0 nXcXq 3X,X5X8X6X8X8XwXtXcX",
"cX2X3 4 5 8X8X8X6X4X5X6X8X5X5X3X3X3X8XwXwXyXcXq 9XqXrXuXiXiXuXuXuXnXyXyXyXuXiXiXyXyXvXtXyXuXyXiXiXpXpXpXcXq 6X4X8XqX6X9XwXqXyXcX",
"cX1X4 3X4 5X6X8X4X2X5X6X8X4X4X3X4X5X9X5 6 tXcXq cXcXcXcXcXcXcXcXcXcXcXcXcXcXcXcXcXcXcXcXcXcXcXcXcXcXcXcXcXq 2X2X9XwXwXrXqXqXuXcX",
"cX5X5X4 3 3X5X8X6X6X8X4X5X8X5X4X4X5 8X5 qXtXcXq 6X4X9X8X5X4X6X4 2X3X3 3 6XwX6X6X8X8XrXq q q q q q q q q q q 1X6X9X8XwX9X6XwXpXcX",
"cX4X4X5X3 1X5X6X8XrXrX6X6X8X6X6X9XrX9XqXrXuXcXq 4X6X6X3X3 5X6X3 1 3X3 4X8X8X4X4X8XqXiXcXq 1X1X2X3X4X5 wXq q 5X9X8X6X9X8X5XwXpXcX",
"cX1 3 3 3 3 3 8XtXqX6X3 5X8XqXrXwX8X6XwXrXuXcXq 8XrXwX5 2X3X4X3X3 8XqX8X8X4X3 8XwX7 iXcXq ,X,X3X,X4X6XwXcXq 5X8X5X5X8XqX9XwXuXcX",
"cX,X3X6X5 5X3 8XrX5 6X5 4 8XqXwXrX9X8X9XqXuXcXq tXrX8X4 5X5X4 7 9X9X8X8X8X5 6X8X7 rXyXcXq 4X4X2X3X6XqXyXcXq < 3X6X8X8X6X9XrXpXcX",
"cX4X4X6X6 5 5 8XqX5 6 5 5 qXrXwXwX9X8XwXwXiXcXq rX5X5X1X7 bXqXqX5X6X6X5X4 8X8X5 wXrXuXcXq 6X6X3 5XqXtXuXcXq 3 3X6XqX8X5X9XrXpXcX",
"cX5X4X6X7 6 5X6X6X8X9X5 8XrXtXrX9X8X9XqXqXuXcXq 5 4X5X6X8XwX8X6X5X6X4X3 4 6X6X6 wXrXiXcXq 4X8X5X9XwXrXuXcXq 8X5X6X9X6X6X9XtXiXcX",
"cX6X4 6 7 4 6X8X8X9X9XwX9X8X9XwXqX8X9X9XrXiXcXq 2X3 3 3X4X5 8X5X4X4X4 4 6X5X5XqXrXtXpXcXq ,X4X8XqXqXrXnXcXq 6X6X5X6X8X9XwXyXpXcX",
"cX6X4 5 5 8X9XqXrXrXrXrX8X6X8X9X9X8X8XwXyXiXcXq 9X6X5 5 5XqX5 4X4 5 7 5 9X8X8XwXwXtXiXcXq 1X5X8X8XwXrXiXcXq 8X8X9XwXrXrXtXpXpXcX",
"cX8X8XrXrXyXrXrXyXyXuXyXwXbX$ wXwXwXwXtXuXpXcXq wX9X6 8X4 8X8X6X6 9XqX9X8X9XqXwXrXrXyXcXq 6X6X4X8XrXrXiXcXq rXrXrXuXiXiXpXpXcXcX",
"cXrXrXiXiXpXpXiXpXiXiXpXiXiXiXuXuXuXuXpXpXpXcXq 1X,X4 4 4 5X8XwXwXwXwXwXqX9XwXwXwXrXuXcXq 4X6X3 4 wXrXuXcXq cXcXcXcXcXcXcXcXcXcX",
"cXcXcXcXcXcXcXcXcXcXcXcXcXcXcXcXcXcXcXcXcXcXcXq 2X3 5X8X6 6X8XrXrXwXwXwXqX7 wXwX8XwXuXcXq 1X3X4 6XqXtXpXcXq q q q q q q q q q q ",
"1X3X8XwX8X8XqX8XwXwX6X4X4X9XwXrXcX2X,X,X2X8XwXcX4 2X3 4 6X8X7 8XbXrXrXwX9XwX9X9X9XrXyXcXq ,X1X8X8XqXyXpXcXq 8X8X$ tXcX4X4XbX6X,X",
",X1X8X9X6X6X8X6 5 5X4X4X4X8XrXyXcX3X2X,X3 6X8 cX8X6X8X5 5 9XwX6 7 wXwXrXqX7 7 qX7 bXuXcXq 8X6X8X8XwXuXpXcXq 9X3X7 tXcX4X,X8X3X,X",
"6X6X5X5X5X6X6XqX8X6X4X4X5X8XwXtXcX8X,X2X8X9XvXcX5X8X9XrXqX9XwXrXqXrXrXrX8 7 9XwXbXbXnXcXq 8X8XqXrXtXpXpXcXq wX7 wXyXcX,X3XqX6X8X",
"rX8X3X8XqX8X6X6X6X5X4X6X6X8XwXuXcX1X2X4X8XrXiXcX8XqXrXtXrXrXrXrXrXtXtXrXyXtXtXnXyXnXmXcXq 6 9XrXyXq pXpXcXq wXqXrXiXcX2X6XrXqXtX",
"8X6X4 wX8X4X5X6X3X5X6X8XqXwXrXpXcX,X2X3X9XrXiXcXwXrXyXnXuXyXyXuXiXpXiXiXpXmXpXmXmXcXcXcXq wXrXuXpXpXmXmXcXq rX$ uXpXcX9X8X8X8X6X",
"6X4X5 4X3X2X5X6X8XwXrXtXrXwXrXpXcX1X1X4 wXtXpXcXcXcXcXcXcXcXcXcXcXcXcXcXcXcXcXcXcXcXcXcXq cXcXcXcXcXcXcXcXcXcXcXcXcXq 8X6X6X6X5X",
"8X4 3X3X3X5X4X8X5XqXtXrXwX9XrXiXcX3X3X6XqXtXpXcXq q q q q q q q q q q q q q q q q q q q q q q q q 3X3X5X3X6X9XwXyXq q 9X5X2X3X4X",
"8X6X1X5X5X6X4X8X6XwXrXwX9X9XrXiXcX3X3XqX9XtXpXcXq 4X5X4 6 8X6 7 6 5X6X3X4X8X8X8X8X7 3X3 3 9X9Xq q 6X4X3 4X9X9XqXyXcXq 8X5X4X8X6X",
"8X4X4X6X5X6X8XrXtXrXqX7 7 wXrXyXcX6X6X9XwXyXpXcXq < 3 5 8X4 5 5 4 4X4 4 8XqX6XwX$ 8X5X3 3 9XrXcXq 3X8X5X6XqX8XwXuXcXq 5X8X8X8X8X",
"5X1X3X3X6XwX9XqXrX9X8X8XqXqXwXuXcX9X9XwXrXiXmXcXq 3 5X5 qX7 7 6 6 8X5 6 qXwX7 wX5 3 4X5 8X7 yXcXq 3 4X6X8X9X9XrXuXcXq 6X4X6X6X6X",
"6X2X2X2X5X6X9XwXrX9X9X7 rXwXrXyXcXyXrXyXpXpXmXcXq 4 3X6 8XqX9XqXwX8X6X8X9XqXrX7 5X8X6 9XqX7 yXcXq 5X6X8XqXwXrXrXpXcXq 8X6X4 8X8X",
"9X9X6X2X8XwX9XwXrXwXwXuXtXqXwXyXcXcXcXcXcXcXcXcXq 3X4X6 8X9XrXwX8X6 8X6X6 7 bXrX6XrXrXwXwXrXnXcXq 8X8X9X8X9XqXwXiXcXq 9X6X3X4X4X",
"8X8X3 5XwXqX8X8XwXrXwXuXwXqXrXyXcXq q q q q q q q 3 4X4X9XyXtXqX6X5 qX9XqX8 rXqX8X9X8X6 wXyXiXcXq 4X6X6X5 6X9XrXiXcXq 3X4X6X8X8X",
"5X4X4XqXwX9X9XqXrXbX9XwX9X9XrXuXcX3X1X3X2X8XbXq q 3 3 6XrX$ 7 9X6 8XtXtXrXrX8X9XwX6X5 8XwXyXiXcXq 5X5X8X5 6X9XrXiXcXq ,X3X5X8X8X",
"4X3X8XrXqX8X9XqXwXqXqXrXwX8XwXyXcX2X,X,X3X6XrXcXq 9XqXwXrX9X6 6 6 9XtXrXqX9XqXrX9X6 9X9XwXtXpXcXq 8X4X6X8X9XwXrXyXcXq 2X3X8X8X8X",
"5X4XrXrX8X6X8XwXrXwXrXrXrX9XrXuXcX1X,X2X5X8XtXcXq wX6XrXrXrXqX7 9XwX$ rXqXwXtXtX7 wX7 9XwXyXiXcXq 3X2X6X9X9XwXuXiXcXq 3X5XqX6X6X",
"6X8X9XwXqXwXwXrXrXrXrXwXrXqXrXnXcX5X,X1X6XwXiXcXq 8X3X9XrXqX6 6 qXrXrX$ tXrXyXrXtXrX6 8XrXyXpXcXq 2X4X6X9X8XwXuXpXcXq 4X8XqX8X3X",
"4X9XrXwXrXwXwXrXrXwX9XqXyXwXwXyXcX3X5X3 8XyXpXcXq 8X6XwXyX9X8X8XwXrXyXrXwXqXrXrXrX9X6 9XqXtXpXcXq 3X5X8X9X9XwXuXpXcXq 5X8X8X5X4X",
"5X9XrXrXrXrXrXrXrXwX9X7 wX8XrXuXcX6X2X8XrXiXpXcXq 4 6X8XrXbX9X8X9X7 rXrXqXwXtXwXwXwX9X9XrXyXpXcXq qXqXqXrX9XwXrXpXcXq 6X6X5X4 5X",
"9XqXrXwXrXwXrXqXwXqX9X8X8X8XwXuXcX5X8XwXuXiXpXcXq 5 5 qXwXwX7 qX9X7 tXtXrXrXrXrXtXrXrXtXuXiXpXcXq rXrXwX7 qXwXrXiXcXq 6X6X6X8X8X",
"8XwXtXqXqXwXwXqXqX9XqX8X8XqXtXuXcX4X8XqXyXyXiXcXq rXrX$ vXyXuX0 0 uXpXpXiXpXuXpXiXpXpXpXpXpXcXcXq qX6X6 7 qXrXrXpXcXq 6X4X6X9XqX",
"8X9XrXqX9XwXrXwXqXqXqX9XwXtXpXpXcX4X8XwXwXrXiXcXq cXcXcXcXcXcXcXcXcXcXcXcXcXcXcXcXcXcXcXcXcXcXcXq 9X7 6 7 5 9XrXpXcXq 3 6X8X9XwX",
"qXqXwXrXqXrXrXrXrXrXrXrXyXyXiXpXcX1X8X8X8XrXiXcXq q q q q q q q q q q q q q q q q q q q q q q q q 5XqX9X6X8X8X8 iXcXq 6X8XwXwXwX",
"yXiXuXpXuXuXiXiXiXnXuXuXpXiXq pXcX< 3X5X9XbXiXcXq 6XrX8 5X3X2X5X9X8X4X4X8X6X6X3 3X4X2X4X5XqXrXq q 8X8X8X4 8X8XrXuXcXq rXrXyXuXyX",
"cXcXcXcXcXcXcXcXcXcXcXcXcXcXcXcXq 1 1X6XqXyXpXcXq 4X5X6X4 4 3X6X8X8X8X6X6X4X6X4X4X6X5X8X9XwXyXcXq 5X3X5X6X9X9XrXuXcXq cXcXcXcXcX",
"q q q q q wX4X2X2X5X3 8XwX4 qXq q 1X5X6XwXtXpXcXq 8X4 5X5 4X5X8X9XqX9X5X4 5X8X8X8X8X8X8XqXrXyXcXq 5X2X5X3X8XwXrXyXcXq 5X4XwXrXcX",
"q 8X6X3X3X9X2X3X6X6X3X6X5X8X8 q q qXwX8XrXuXpXcXq 8X5X6X5 4X6X9X8X6 8X6 8X6X6XqXqXwX9X9XwXrXuXcXq 4X3X4X6X8XwXrXuXcXq 1X1X9XrXcX",
"q 3X3X4XqXwX9XwXrX8X8XrX6X9XuXcXq 8X5 rXuXpXpXcXq 1 4X6 4 3 6X8X6X6X3X8X6 6X8X8X9X9X9XwX9X$ pXcXq 4X4X5X8X9XwXtXpXcXq 6X8XwXyXcX",
"q 2X,X5XrX8XrXrX6X6X8X9XwXuXpXcXq rXtXuXpXcXcXcXq 1 5X8X6X3 2X4X6X4X4X6X6X8X6X6X8X8XwXwXwXrXiXcXq 8X8X9X9XrXuXpXpXcXq rXrXtXiXcX",
"q 1 2XqXyXqXtXwX8XqXwXqXwXyXpXcXq cXcXcXcXcXcXcXq 8X5X6X6X4X2X1X6X8XqX8X5 6X8XwXqXwXrXrXrXrXiXcXq qXwXtXyXpXpXpXcXcXq qXrXtXpXcX",
"q 3X6X8XqXqXrX8X8X8XqX8X8XtXpXcXq q q q q q q q q rX5X6X5X2X4X6XwXrXqX9XwXqX8X9X9XwXwXbX8 rXuXcXq cXcXcXcXcXcXcXcXcXq wXrXuXpXcX",
"q 8X4X9X6X8X8X4X3 8X9XwXrXtXiXcXq 6X2X8XtXwXqXq q 4X3X8X5X4 5X3 rXqX8X6 qXrXqXqXrXrXrXqX8XwXuXcXq q q q q q q q q q q q q q q cX",
"q 8X5X6X6X9X3 3 5XwXqXrXwXtXpXcXq 2X5X8XqXwXrXcXq 2X3X9XwX8X4X6X8X8X6X8XqXwXwXwXrXtXwX9X9XrXiXcXq 6X8X4X5X6X4X8X8X2X1X3X6X8XwXcX",
"q 6X4X6X5X9X9X8X8XqXwXqX6 rXiXcXq 5X3 3 qXrXyXcXq 3 4XwX9X6 5 8X8X6X6X9XqX7 wXrXrXtXtXrXrXyXpXcXq 1X3 4X5X6X5X8X6X,X,X4XqXwXrXcX",
"q 8X9X5X5XqX4X5X8XwXqXqX7 8 nXcXq 4 3 5X5 7 yXcXq 3 3 8X6X4 8XqX9X9XyXrXwXwXwXrXrXrXtXyX0 mXpXcXq 5X,X4X6X4X5X8X5X6X6X6XrXrXyXcX",
"q 8X6X8X8X6X3X6XwXyXrXwXvXvXnXcXq 5 4 8X5 7 nXcXq 5 4 8X8X8X7 8X8XwXrXqX8X8XwXtXrXrX7 6 bXyXiXcXq 8X6X8X8X8X6X5X6X9XwXrXyXyXiXcX",
"q 5X3X6X8X3X3X6X9XwXrXrXvXvXuXcXq 4 5X6X7 yXpXcXq 8X5 6X6X8X8X6X8XqX8X6X8X9XrXrXrXrXrX6 qXrXuXcXq 6X5X8X8X6X6X6X8X8X6 7 wXyXpXcX",
"q 3X5X5X3X2X2X3X6XwXrXrXbX$ yXcXq 8X5 6XwXuXpXcXq 6X5X4X6X5X5 8XqX8X8X6X9X9XwXrXrXbXrXrXwXwXyXcXq 8X3X4X6X8X6X6X6X8X8X6 9XrXiXcX",
"q 5X9XwX6X4X1X3X8XwXtXrX8 bXyXcXq 8X6X8XrXuXmXcXq 8X6X8XwX9X5X5X8X6X8X8X8X8X9XwX$ rXwXwXwXrXnXcXq 5X3X6X9X9X9X8X9XqX9X9XwXrX0 cX",
"q 8X8X9X6X8X6X5XqX9XqXqXbX$ nXcXq 6X4X8XbXvXmXcXq 6X1X3X3 8X8X6X8X8X8XwXqXqXwXrXrXtXrXrXrX$ uXcXq 5X6XqXqX9X6X8XrXqX6 9X9X7 0 cX",
"q 8X3X6X5X4X8X6X8XqX7 8X7 8 vXcXq 6X2X5 8 bXpXcXq 2X3X8X3 6X9X5 6X8X9XwXrXwXrXrXrXrXrXwX7 $ iXcXq 6X8XqXqXqX8X8XwXwX5 qXwXwXyXcX",
"q 6X5X8X8X8XqXqX4 5 6 6 8X6 vXcXq 5X3X8XwXrXpXcXq 3X3 3 4X5X8X8X8XrXrXrXwX9XwXqXqXwXwX7 7 rXpXcXq 5X6XwXwXwXrXqXwXtXqXwXrXrXiXcX",
"q 4X4X6X9X9X8X9X8X6 6 wX6 7 nXcXq 3 ,X5X9XrXpXcXq 8X6X8X4 9XwXqXwXrXrXrXwX9XwXwXrXwX9X7 rXtXq cXq 3X8XwXwX9X8X8X9XqX6 8X7 wXiXcX",
"q 5X4X6X9X8X6X8X6X8X6 8X8XbXuXcXq 5X5XwXrXtXpXcXq 6X8X8X8X8X9XqXwXqXwXwXwX9XqXwXwXqXqX9XrXtXpXcXq 1 3X9XwX8X8X6X6X6X8XqX8XrXpXcX",
"q 8X8X8X8X9X6X8XwXrXqX6 6 bXnXcXq qX6XrXrXyXpXcXq 6X6X6X6 8XwXwXrXwXqXrXrXrXrXwXqXrXrXqX8 rXq cXq 5X4X8XqXrX7 8X8X8XqXrX7 rXpXcX",
"q 8X9XqXqXqXrX$ rXrXrXrXtX0 mXq q 9X6X6 $ uXpXq q 6 wXwXwXwXrXtXrXrXrXrXyXyXtXrXyXtXvXvXrXyXq q q 6X8X7 rXyXrXwXqXrXrXyXiXuXpXcX",
"vXwXrXrXrXrXyXtXtXyXtXyXyXnXq vXvXtXrX$ 0 iXmXvXvX8XrXtXyXyXyXuXyXuXuXyXyXuXyXuXiXyXnXnXuXq q vXvX9X8XrXyXyXyXyX$ tXiXiXpXpXmXq "
};
